<?xml version="1.0" encoding="UTF-8"?><svg id="a" xmlns="http://www.w3.org/2000/svg" width="1629.06" height="814.7" xmlns:xlink="http://www.w3.org/1999/xlink" viewBox="0 0 1629.06 814.7"><defs><linearGradient id="b" x1="814.53" y1="-814.7" x2="814.53" y2="814.7" gradientUnits="userSpaceOnUse"><stop offset="0" stop-color="#000" stop-opacity="0"/><stop offset=".5" stop-color="#000" stop-opacity="0"/><stop offset=".75" stop-color="#000" stop-opacity=".09"/><stop offset="1" stop-color="#000" stop-opacity=".3"/></linearGradient></defs><path d="M715.56,814.7h-5.67l-22.63-22.63-22.63,22.63h-5.67.01s28.29-28.3,28.29-28.3l22.63-22.61,2.84-2.84,2.82,2.83-25.45,25.45,25.45,25.46h.01ZM1629.06,512.16v-5.67l-22.49-22.49-2.83-2.81-22.62-22.63-25.45-25.46,25.45-25.46-2.82-2.82-2.84,2.83-22.63,22.61-28.29,28.3-22.62,22.63-2.83,2.82,25.46,25.46-22.63,22.62-2.83,2.83-22.62,22.63-22.63-22.63-2.83-2.82-2.83,2.82,25.46,25.46-99,99-2.83,2.82-22.62,22.63-25.46,25.46-48.09-48.09,22.63-22.62,28.3-28.29-2.84-2.82-50.91,50.91-124.45-124.45,48.08-48.08,76.37,76.37,2.82-2.84,25.46-25.46,22.63-22.62,22.63,22.62,25.46,25.46,2.82,2.84,2.83-2.83-2.82-2.84-22.63-22.63,25.45-25.45-2.83-2.82-25.45,25.45-48.09-48.09,22.63-22.63,2.83-2.82,22.62-22.63,25.46-25.46,50.91,50.91,2.83-2.82-2.83-2.83-22.62-22.63-25.46-25.46-2.83-2.82-2.83,2.82-22.62,22.63-25.46,25.46-48.08-48.08,50.92-50.92-2.84-2.83-28.29,28.29-22.62,22.63-2.83,2.82,28.29,28.29,22.62,22.63-25.45,25.45,2.82,2.83,22.63,22.63-22.63,22.62-2.83,2.83-22.61,22.63-22.64-22.63-2.83-2.82-22.62-22.63-25.45-25.46,25.45-25.45-2.83-2.83-2.83,2.83-22.63,22.62-28.29,28.29-22.62,22.63-2.75,2.74,25.29,25.29-22.62,22.61-2.83,2.83-22.62,22.63-22.63-22.63-2.84-2.82-2.82,2.82,25.46,25.46-99,99-2.84,2.82-22.61,22.63-25.47,25.46-48.09-48.09,22.64-22.62,28.29-28.29-2.84-2.82-50.91,50.91-124.45-124.45,48.08-48.08,76.37,76.37,2.82-2.84,25.47-25.46,22.62-22.62,22.64,22.62,25.45,25.46,2.83,2.84,2.82-2.83-2.82-2.84-22.62-22.63,25.44-25.44-2.82-2.83-25.45,25.45-22.64-22.62-25.46-25.47,22.63-22.63,2.83-2.82,22.62-22.63,25.47-25.46,50.91,50.91,2.83-2.82-2.83-2.82-22.62-22.64-25.47-25.46-2.82-2.82-2.83,2.82-22.62,22.63-25.47,25.47-48.08-48.09,50.92-50.92-2.84-2.83-28.29,28.29-22.62,22.63-2.83,2.82,28.3,28.29,22.62,22.63-25.45,25.45,2.81,2.83,22.64,22.64-22.63,22.61-2.84,2.84-22.61,22.62-22.63-22.63-2.83-2.82-22.62-22.63-25.46-25.46,25.46-25.45-2.83-2.83-2.84,2.83-22.62,22.62-28.3,28.29-22.62,22.63-2.83,2.81,25.47,25.48-22.63,22.62-2.83,2.83-22.62,22.63-22.63-22.63-2.83-2.82-2.83,2.82,25.46,25.46-99,99-2.84,2.82-22.61,22.63-25.46,25.46-48.09-48.09,22.63-22.62,28.29-28.29-2.83-2.82-50.91,50.91-124.45-124.45,48.08-48.08,76.37,76.36,2.82-2.83,25.46-25.46,22.63-22.62,22.63,22.62,25.46,25.46,2.82,2.83,2.83-2.82-2.82-2.84-22.63-22.63,25.45-25.45-2.83-2.82-25.45,25.44-22.63-22.62-25.47-25.46,22.64-22.63,2.83-2.82,22.62-22.63,25.46-25.47,50.91,50.92,2.83-2.82-2.83-2.83-22.62-22.63-25.46-25.46-2.83-2.82-2.83,2.82-22.62,22.63-25.46,25.46-48.09-48.08,50.92-50.92-2.83-2.83-28.29,28.29-22.62,22.63-2.83,2.82,28.29,28.29,22.62,22.63-25.45,25.45,2.82,2.83,22.63,22.63-22.63,22.62-2.83,2.83-22.62,22.63-22.63-22.63-2.83-2.82-22.62-22.63-25.46-25.46,25.46-25.46-2.83-2.82-2.83,2.83-22.63,22.62-28.29,28.29-22.62,22.63-2.84,2.82,25.46,25.47-22.62,22.61-2.83,2.83-22.62,22.63-22.63-22.63-2.83-2.82-2.83,2.82,25.46,25.46-99,99-2.84,2.82-.02.02h5.69l48.09-48.09,22.62,22.62,25.46,25.47h5.66l-28.29-28.29-22.62-22.63,50.91-50.91,22.62-22.64,2.83-2.81,22.63-22.63,48.08,48.08-22.62,22.62-28.29,28.3,2.83,2.82,50.91-50.91,99,99h5.65l25.47-25.47,22.61-22.62,2.84-2.82,48.09-48.09,22.61,22.62,25.46,25.47-22.63,22.61-2.83,2.83,25.46,25.47h5.67s-25.46-25.47-25.46-25.47l25.45-25.44-28.29-28.3-22.62-22.62,50.92-50.91,22.62-22.64,2.82-2.81,22.63-22.63,48.08,48.08-22.61,22.62-28.3,28.29,2.83,2.83,50.91-50.91,99,99-48.08,48.08-22.62-22.64-2.83-2.82-22.64-22.62-2.83-2.83-2.82,2.83-22.64,22.62-2.81,2.82,2.83,2.83,2.81-2.83,22.63-22.62,22.64,22.62,2.83,2.83,22.62,22.64h5.66l22.63-22.64,22.64,22.64h5.64l-2.83-2.84-22.62-22.63,22.61-22.62h0s2.83-2.84,2.83-2.84h0s25.46-25.45,25.46-25.45l22.62-22.63,2.83-2.82,48.09-48.09,22.61,22.63,25.47,25.46-22.63,22.61-2.84,2.84,28.3,28.29,2.83-2.84-25.45-25.45,25.44-25.45-28.29-28.29-22.61-22.63,50.91-50.91,22.62-22.64,2.83-2.81,22.63-22.63,48.07,48.08-22.61,22.63-28.29,28.29,2.83,2.83,50.91-50.92,98.99,99-48.08,48.08-22.62-22.63-2.83-2.83-22.63-22.62-2.83-2.83-2.83,2.83-22.63,22.62-2.82,2.83,2.83,2.83,2.82-2.83,22.63-22.62,22.63,22.62,2.83,2.83,22.62,22.63-25.45,25.45,25.45,25.45-.02.02h5.68s-25.46-25.47-25.46-25.47l22.63-22.62,25.46-25.46,25.45,25.44,2.83-2.81-2.82-2.84-22.63-22.62,22.62-22.63.18.18,2.74-2.74,25.46-25.46,22.61-22.63,2.84-2.82,48.09-48.09,22.61,22.62,25.46,25.47-22.62,22.61-2.84,2.84,28.29,28.29,2.84-2.84-25.46-25.45,25.45-25.45-28.29-28.29-22.61-22.63,50.91-50.91,22.62-22.64,2.83-2.81,22.62-22.63,48.08,48.08-22.61,22.62-28.3,28.3,2.83,2.82,50.92-50.91,50.76,50.77v-5.66l-124.31-124.31,48.08-48.08,76.23,76.22ZM356.34,811.86l-2.83,2.84h5.66s-2.83-2.84-2.83-2.84ZM559.98,811.87l-22.62-22.64-25.46-25.46-2.83-2.81-2.83,2.81-22.62,22.64-25.46,25.46-48.08-48.08,50.92-50.92-2.84-2.84-28.29,28.29-22.62,22.64-2.83,2.81,28.29,28.29,22.62,22.64h5.66l22.62-22.64,25.46-25.46,48.1,48.1h5.64l-2.83-2.83ZM509.07,811.87l-2.83,2.83h5.66l-2.83-2.83ZM916.37,760.96l-22.62-22.64-25.47-25.46-2.83-2.81-2.82,2.81-22.62,22.63-25.47,25.47-48.08-48.09,50.92-50.91-2.84-2.84-28.29,28.29-22.62,22.64-2.83,2.81,28.29,28.29,22.62,22.64-25.45,25.44,2.82,2.83,22.63,22.64h5.66l-25.46-25.47,22.63-22.63,2.83-2.81,22.62-22.64,25.46-25.46,50.92,50.91,2.82-2.81-2.82-2.83ZM865.45,811.87l-2.83,2.83h5.66l-2.83-2.83ZM1173.75,712.87l22.62-22.64,25.46-25.46,50.91,50.91,2.83-2.81-2.83-2.83-22.62-22.63-25.46-25.47-2.83-2.81-2.83,2.81-22.62,22.64-25.46,25.46-48.09-48.08,50.92-50.92-2.83-2.84-28.29,28.29-22.62,22.64-2.83,2.81,28.29,28.29,22.62,22.64-25.45,25.45,2.82,2.83,22.63,22.63-22.63,22.61-2.83,2.84-22.62,22.63-22.63-22.64-2.83-2.81-22.62-22.64-25.46-25.45,25.46-25.46-2.83-2.83-2.83,2.84-22.63,22.61-28.29,28.29-22.62,22.64h-.01s-2.83,2.8-2.83,2.8l25.47,25.49h5.66l-25.46-25.46,48.08-48.09,73.55,73.55h5.62l.02-.02,25.46-25.46,22.63-22.61,22.63,22.62,25.46,25.45.02.02h5.63s-2.82-2.84-2.82-2.84l-22.63-22.63,25.45-25.45-2.83-2.83-25.45,25.45-22.63-22.62-25.47-25.46,22.64-22.64,2.83-2.81ZM1071.93,814.68l-25.46-25.45-2.83-2.82-2.83,2.81,25.48,25.48h5.66l-.02-.02ZM1170.93,811.86l-2.84,2.84h5.68l-2.84-2.84ZM1629.06,302.84l-22.45-22.44-2.83-2.82-2.83,2.81,25.46,25.46-99,99-2.84,2.83-22.61,22.62-25.46,25.47-48.09-48.09,22.63-22.62,28.29-28.3-2.83-2.82-50.92,50.91-124.45-124.45,48.09-48.08,76.36,76.37,2.83-2.84,25.46-25.46,22.63-22.61,22.63,22.62,25.46,25.45,2.82,2.84,2.83-2.83-2.82-2.84-22.63-22.62,25.45-25.45-2.83-2.83-25.45,25.45-22.64-22.62-25.46-25.46,22.64-22.64,2.82-2.81,22.63-22.64,25.46-25.46,50.91,50.91,2.83-2.81-2.83-2.83-22.62-22.64-25.46-25.46-2.83-2.81-2.83,2.81-22.62,22.64-25.46,25.46-48.09-48.09,50.92-50.91-2.83-2.84-28.29,28.29-22.63,22.64-2.82,2.81,28.29,28.29,22.62,22.64-25.45,25.45,2.81,2.82,22.64,22.64-22.63,22.61-2.83,2.84-22.62,22.62-22.63-22.63-2.83-2.81-22.62-22.64-25.46-25.45,25.46-25.46-2.83-2.83-2.84,2.84-22.62,22.61-28.29,28.29-22.62,22.64-2.84,2.82,25.46,25.46-22.62,22.61-2.83,2.83-22.62,22.64-22.63-22.63-2.84-2.82-2.82,2.81,25.46,25.46-99,99.01-2.84,2.82-22.61,22.63-25.47,25.46-48.09-48.09,22.64-22.62,28.29-28.29-2.84-2.83-50.91,50.92-124.45-124.45,48.09-48.09,76.36,76.37,2.82-2.84,25.47-25.46,22.62-22.61,22.64,22.62,25.46,25.45,2.82,2.84,2.82-2.83-2.82-2.83-22.62-22.63,25.44-25.45-2.82-2.83-25.45,25.45-22.64-22.62-25.46-25.46,22.63-22.64,2.83-2.81,22.62-22.64,25.47-25.46,50.91,50.91,2.83-2.81-2.83-2.83-22.62-22.63-25.47-25.47-2.82-2.81-2.83,2.81-22.62,22.64-25.47,25.46-48.08-48.08,50.92-50.92-2.84-2.84-28.29,28.29-22.62,22.64-2.83,2.81,28.3,28.29,22.62,22.64-25.45,25.45,2.81,2.83,22.64,22.63-22.63,22.61-2.84,2.84-22.61,22.63-22.63-22.64-2.83-2.81-22.62-22.64-25.46-25.45,25.46-25.46-2.83-2.83-2.84,2.84-22.62,22.61-28.3,28.29-22.62,22.64-2.74,2.73,25.29,25.29-22.63,22.61-2.83,2.83-22.62,22.64-22.63-22.63-2.83-2.82-2.83,2.81,25.46,25.47-99,99-2.83,2.82-22.62,22.63-25.46,25.46-48.09-48.09,22.63-22.62,28.29-28.29-2.83-2.82-50.91,50.91-124.45-124.45,48.08-48.09,76.37,76.37,2.82-2.83,25.46-25.47,22.63-22.61,22.63,22.62,25.46,25.46,2.82,2.83,2.83-2.83-2.82-2.83-22.63-22.63,25.45-25.45-2.83-2.83-25.45,25.45-22.63-22.62-25.47-25.46,22.64-22.64,2.83-2.81,22.62-22.63,25.46-25.47,50.91,50.91,2.83-2.81-2.83-2.83-22.62-22.63-25.46-25.47-2.83-2.81-2.83,2.81-22.62,22.64-25.46,25.46-48.08-48.08,50.91-50.92-2.83-2.84-28.29,28.29-22.62,22.64-2.83,2.81,28.29,28.29,22.62,22.64-25.45,25.45,2.82,2.83,22.63,22.63-22.63,22.61-2.83,2.84-22.62,22.63-22.63-22.64-2.83-2.81-22.62-22.64-25.45-25.45,25.45-25.46-2.83-2.83-2.83,2.84-22.63,22.61-28.29,28.29-22.62,22.64h-.01s-2.83,2.81-2.83,2.81l25.47,25.48-22.63,22.61-2.82,2.83-22.62,22.63-22.63-22.62-2.84-2.82-2.83,2.81,25.47,25.46-99.01,99.01-2.83,2.82-22.61,22.62-25.47,25.47-48.09-48.09,22.64-22.62,28.29-28.3-2.84-2.82-50.91,50.92-124.45-124.46,48.08-48.08,76.37,76.37,2.82-2.84,25.47-25.46,22.62-22.61,22.64,22.62,25.45,25.45,2.82,2.84,2.83-2.83-2.82-2.84-22.63-22.62,25.45-25.45-2.83-2.83-25.44,25.45-22.64-22.62-25.46-25.46,22.63-22.64,2.83-2.81,22.62-22.64,25.46-25.46,50.92,50.91,2.82-2.81-2.82-2.83-22.62-22.64-25.47-25.46-2.83-2.81-2.82,2.81-22.62,22.64-25.47,25.46-48.08-48.08,50.92-50.92-2.84-2.84-28.29,28.29-22.62,22.64-2.83,2.81,28.29,28.29,22.62,22.64-25.44,25.45,2.81,2.82,22.63,22.64-22.62,22.61-2.84,2.84-22.61,22.62-22.64-22.63-2.82-2.81-22.62-22.64-25.46-25.45,25.46-25.46-2.83-2.83-2.84,2.84-22.63,22.61-28.29,28.29-22.62,22.64-2.83,2.82,25.46,25.46-22.63,22.61-2.83,2.83-22.62,22.64-22.62-22.63-2.84-2.82-2.83,2.81,25.47,25.46-99.01,99.01-2.83,2.82-22.62,22.63-25.46,25.46-48.09-48.09,22.64-22.62,28.29-28.29-2.84-2.82L.04,608.19v5.6l47.91,47.91L.04,709.6v5.66l25.29-25.29,25.45,25.45,2.82-2.81-2.82-2.84-22.62-22.63,22.61-22.62.18.18,2.74-2.74,25.46-25.47,22.61-22.62,2.84-2.83,48.09-48.09,22.61,22.63,25.47,25.46-22.63,22.62-2.84,2.83,28.29,28.29,2.84-2.83-25.46-25.46,25.45-25.45-28.29-28.29-22.61-22.63,50.91-50.91,22.62-22.63,2.83-2.82,22.63-22.62,48.07,48.07-22.61,22.63-28.29,28.29,2.83,2.83,50.91-50.91,98.99,98.99-48.08,48.09-22.62-22.64-2.83-2.83-22.63-22.62-2.83-2.82-2.83,2.82-22.63,22.62-2.82,2.83,2.83,2.83,2.81-2.83,22.64-22.62,22.63,22.62,2.83,2.83,22.62,22.64-25.45,25.44,2.83,2.83,22.61,22.63-48.07,48.08-50.91-50.91-25.46,25.46-2.84,2.83-22.61,22.62-22.63-22.63-2.83-2.82-22.62-22.63-25.46-25.46-2.83-2.82-2.83,2.82,28.29,28.29,22.62,22.63,2.83,2.82,25.46,25.46,2.83-2.83,22.61-22.63,2.84-2.82,22.63-22.62,48.07,48.07-22.62,22.63-2.83,2.83-25.45,25.45.02.02h5.62l25.47-25.47,76.37-76.36-25.46-25.47,22.63-22.62,25.46-25.46,25.45,25.45,2.83-2.81-2.82-2.84-22.63-22.63,22.61-22.62,2.84-2.83,25.46-25.46,22.62-22.63,2.83-2.82,48.09-48.09,22.62,22.63,25.46,25.46-22.63,22.62-2.83,2.83,28.29,28.29,2.83-2.83-25.45-25.46,25.44-25.45-28.29-28.29-22.61-22.63,50.91-50.91,22.62-22.63,2.83-2.82,22.63-22.62,48.07,48.07-22.61,22.63-28.29,28.29,2.83,2.83,50.91-50.91,98.99,98.99-48.08,48.09-22.62-22.64-2.83-2.83-22.63-22.62-2.83-2.83-2.83,2.83-22.63,22.62-2.82,2.83,2.83,2.83,2.82-2.83,22.63-22.62,22.63,22.62,2.83,2.83,22.62,22.63-25.45,25.45,2.83,2.83,22.62,22.63-48.08,48.07-50.9-50.9-25.47,25.46-2.83,2.82-22.62,22.63-22.63-22.63-2.83-2.82-22.62-22.63-25.46-25.46-2.83-2.82-2.83,2.82,28.29,28.29,22.62,22.63,2.83,2.82,25.46,25.46,2.83-2.83,22.62-22.63,2.83-2.82,22.63-22.63,48.07,48.08-22.62,22.63-2.82,2.83-22.63,22.62-2.83,2.82,2.84,2.84,2.82-2.83,22.62-22.63,2.83-2.82,76.37-76.36-25.46-25.47,22.63-22.62,25.46-25.46,25.45,25.45,2.83-2.82-2.82-2.83-22.63-22.63,22.62-22.63,2.82-2.83h0s25.46-25.46,25.46-25.46l22.61-22.62,2.84-2.83,48.09-48.09,22.61,22.63,25.46,25.46-22.62,22.62-2.84,2.83,28.29,28.29,2.84-2.83-25.46-25.46,25.45-25.45-28.29-28.29-22.61-22.62,50.91-50.92,22.62-22.63,2.83-2.81,22.62-22.63,48.08,48.07-22.61,22.63-28.29,28.29,2.82,2.83,50.92-50.91,98.99,98.99-48.08,48.09-22.62-22.64-2.83-2.83-22.64-22.62-2.82-2.82-2.83,2.82-22.64,22.62-2.81,2.83,2.83,2.83,2.81-2.83,22.64-22.62,22.63,22.62,2.83,2.83,22.62,22.64-25.45,25.44,2.83,2.83,22.61,22.63-48.07,48.08-50.91-50.91-25.46,25.47-2.84,2.82-22.61,22.62-22.63-22.63-2.83-2.81-22.62-22.64-25.46-25.46-2.84-2.82-2.82,2.82,28.29,28.29,22.62,22.63,2.83,2.82,25.46,25.46,2.83-2.83,22.61-22.62,2.84-2.83,22.62-22.62,48.08,48.07-22.63,22.63-2.82,2.84-22.63,22.61-2.82,2.83,2.83,2.83,2.83-2.83,22.61-22.62,2.84-2.82,76.37-76.37-25.47-25.46,22.64-22.63,25.46-25.46,25.45,25.45,2.83-2.81-2.82-2.84-22.63-22.63,22.61-22.62.18.18,2.74-2.75,25.46-25.46,22.62-22.63,2.83-2.82,48.09-48.09,22.62,22.63,25.46,25.46-22.63,22.62-2.83,2.83,28.29,28.29,2.83-2.83-25.45-25.46,25.45-25.45-28.3-28.29-22.61-22.63,50.91-50.91,22.62-22.63,2.83-2.82,22.63-22.62,48.08,48.07-22.62,22.63-28.29,28.29,2.83,2.83,50.91-50.91,99,98.99-48.09,48.09-22.62-22.64-2.83-2.83-22.63-22.62-2.83-2.83-2.83,2.83-22.63,22.62-2.82,2.83,2.83,2.83,2.82-2.83,22.63-22.62,22.64,22.62,2.82,2.83,22.62,22.63-25.44,25.45,2.82,2.83,22.62,22.63-48.08,48.08-50.9-50.91-25.47,25.46-2.83,2.83-22.61,22.62-22.64-22.63-2.83-2.82-22.62-22.63-25.45-25.46-2.84-2.82-2.83,2.82,28.29,28.29,22.62,22.63,2.83,2.82,25.47,25.46,2.82-2.83,22.62-22.63,2.83-2.82,22.63-22.62,48.08,48.07-22.63,22.63-2.82,2.83-22.63,22.62-2.83,2.83,2.84,2.83,2.83-2.83,22.61-22.62,2.83-2.83,76.37-76.36-25.46-25.47,22.63-22.62,25.47-25.46,25.44,25.45,2.83-2.82-2.82-2.83-22.63-22.63,22.62-22.63,2.83-2.82,25.47-25.46,22.61-22.63,2.83-2.82,48.1-48.09,22.61,22.63,25.46,25.46-22.63,22.61-2.83,2.84,28.15,28.15v-5.67l-22.48-22.48,22.48-22.48v-5.94l-25.32-25.32-22.62-22.63,47.94-47.93v-5.96ZM.04,659.05v5.28l2.65-2.63-2.65-2.65ZM257.33,611.04l22.63-22.63,25.46-25.46,50.91,50.91,2.83-2.82-2.83-2.82-22.62-22.64-25.46-25.46-2.83-2.82-2.83,2.82-22.62,22.63-25.46,25.47-48.09-48.09,50.92-50.92-2.83-2.83-28.3,28.29-22.62,22.63-2.82,2.82,28.29,28.29,22.62,22.63-25.45,25.45,2.81,2.83,22.64,22.64-22.63,22.61-2.84,2.83-22.61,22.63-22.63-22.63-2.83-2.82-22.62-22.63-25.46-25.46,25.46-25.45-2.83-2.83-2.84,2.83-50.91,50.91-22.62,22.63-2.75,2.74,25.29,25.29-22.63,22.61-2.83,2.83-22.62,22.63-22.62-22.62-2.84-2.83-2.83,2.82,25.46,25.46L.04,811.42v3.28h2.94l-.27-.27,50.91-50.91,22.62-22.64,2.83-2.81,22.62-22.63,48.08,48.08-22.61,22.63-28.29,28.29.26.26h5.13l48.35-48.35,48.35,48.35h5.48l-.02-.02,22.63-22.62,28.29-28.29-2.83-2.82-50.92,50.91-124.45-124.45,48.09-48.08,76.36,76.37,2.83-2.84,25.46-25.46,22.63-22.62,22.63,22.62,25.46,25.46,2.82,2.84,2.83-2.83-2.82-2.84-22.63-22.63,25.45-25.44-2.83-2.83-25.45,25.45-22.64-22.62-25.46-25.47,22.64-22.63,2.82-2.82ZM104.53,763.52l-2.84-2.84-28.29,28.29-22.62,22.64-2.83,2.81.28.28h5.64l-.26-.26,50.92-50.92ZM155.44,814.42l-2.83-2.81-2.83,2.81-.28.28h6.22l-.28-.28ZM.04,760.87v5.3l2.65-2.65-2.65-2.65ZM1629.06-155.36l-28.29,28.3-22.62,22.63-2.83,2.81,28.29,28.29,22.62,22.64-25.44,25.45,2.81,2.83L1626.23.22l-22.62,22.61-2.84,2.84-22.61,22.63-22.64-22.64-2.82-2.81L1530.08.21l-25.46-25.45,25.46-25.46-2.83-2.83-2.84,2.84-22.63,22.61L1473.49.21l-22.62,22.64h0s-2.82,2.81-2.82,2.81l25.66,25.67-22.63,22.62-2.83,2.82-22.62,22.64-22.62-22.63-2.84-2.82-2.83,2.81,25.47,25.47-99.01,99-2.83,2.82-22.62,22.63-25.46,25.46-48.09-48.09,22.64-22.62,28.29-28.29-2.84-2.82-50.91,50.91-124.45-124.45,48.08-48.08,76.37,76.36,2.82-2.83,25.46-25.47,22.63-22.61,22.64,22.62,25.45,25.46,2.82,2.83,2.83-2.83-2.82-2.83-22.63-22.63,25.45-25.45-2.83-2.83-25.45,25.45-22.63-22.62-25.46-25.46,22.63-22.63,2.83-2.82,22.62-22.63,25.46-25.47,50.91,50.92,2.83-2.82-2.83-2.83-22.62-22.63-25.46-25.46-2.83-2.82-2.83,2.82-22.62,22.63-25.46,25.46-48.08-48.08,50.92-50.92-2.84-2.83-28.29,28.29-22.62,22.63-2.83,2.82,28.29,28.29,22.62,22.63-25.45,25.45,2.82,2.83,22.63,22.63-22.62,22.62-2.84,2.83-22.61,22.63-22.64-22.64-2.83-2.81-22.62-22.63-25.45-25.46,25.45-25.46-2.82-2.82-2.84,2.83-22.63,22.61-28.29,28.3-22.62,22.63-2.83,2.82,25.46,25.46-22.63,22.62-2.83,2.83-22.62,22.63-22.63-22.63-2.83-2.82-2.83,2.82,25.46,25.46-99,99-2.83,2.82-22.62,22.63-25.46,25.46-48.09-48.09,22.63-22.62,28.3-28.29-2.84-2.82-50.91,50.91-124.45-124.45,48.08-48.08,76.37,76.37,2.82-2.84,25.46-25.46,22.63-22.62,22.63,22.62,25.46,25.46,2.82,2.84,2.83-2.83-2.82-2.84-22.63-22.63,25.45-25.45-2.83-2.82-25.45,25.45-22.63-22.63-25.46-25.46,22.63-22.63,2.83-2.82,22.62-22.63,25.46-25.46,50.91,50.91,2.83-2.82-2.83-2.83-22.62-22.63L970.24.41l-2.83-2.82-2.83,2.82-22.62,22.63-25.46,25.46L868.42.42l50.92-50.92-2.84-2.83-28.29,28.29-22.62,22.63-2.83,2.82,28.29,28.29,22.62,22.63-25.45,25.45,2.82,2.83,22.63,22.63-22.63,22.62-2.83,2.83-22.61,22.63-22.64-22.63-2.83-2.82-22.62-22.63-25.45-25.46,25.45-25.45-2.83-2.83-2.83,2.83-22.63,22.62-28.29,28.29-22.62,22.63-2.75,2.74,25.29,25.29-22.62,22.61-2.83,2.83-22.62,22.63-22.63-22.63-2.84-2.82-2.82,2.82,25.46,25.46-99,99-2.84,2.82-22.61,22.63-25.47,25.46-48.09-48.09,22.64-22.62,28.29-28.29-2.84-2.82-50.91,50.91-124.45-124.45,48.08-48.08,76.37,76.37,2.82-2.84,25.47-25.46,22.62-22.62,22.64,22.62,25.45,25.46,2.83,2.84,2.82-2.83-2.82-2.84-22.62-22.63,25.44-25.44-2.82-2.83-25.45,25.45-22.64-22.62-25.46-25.47,22.63-22.63,2.83-2.82,22.62-22.63,25.47-25.46,50.91,50.91,2.83-2.82-2.83-2.82-22.62-22.64-25.47-25.46-2.82-2.82-2.83,2.82-22.62,22.63-25.47,25.47-48.08-48.09L562.87.15l-2.84-2.83-28.29,28.29-22.62,22.63-2.83,2.82,28.3,28.29,22.62,22.63-25.45,25.45,2.81,2.83,22.64,22.64-22.63,22.61-2.84,2.84-22.61,22.62-22.63-22.63-2.83-2.82-22.62-22.63-25.46-25.46,25.46-25.45-2.83-2.83-2.84,2.83-22.62,22.62-28.3,28.29-22.62,22.63-2.83,2.81,25.47,25.48-22.63,22.62-2.83,2.83-22.62,22.63-22.63-22.63-2.83-2.82-2.83,2.82,25.46,25.46-99,99-2.84,2.82-22.61,22.63-25.46,25.46-48.09-48.09,22.63-22.62,28.29-28.29-2.83-2.82-50.91,50.91L28.3,229.27l48.08-48.08,76.37,76.36,2.82-2.83,25.46-25.46,22.63-22.62,22.63,22.62,25.46,25.46,2.82,2.83,2.83-2.82-2.82-2.84-22.63-22.63,25.45-25.45-2.83-2.82-25.45,25.44-22.63-22.62-25.47-25.46,22.64-22.63,2.83-2.82,22.62-22.63,25.46-25.47,50.91,50.92,2.83-2.82-2.83-2.83-22.62-22.63-25.46-25.46-2.83-2.82-2.83,2.82-22.62,22.63-25.46,25.46-48.09-48.08,50.92-50.92-2.83-2.83-28.29,28.29-22.62,22.63-2.83,2.82,28.29,28.29,22.62,22.63-25.45,25.45,2.82,2.83,22.63,22.63-22.63,22.62-2.83,2.83-22.62,22.63-22.63-22.63-2.83-2.82-22.62-22.63-25.46-25.46,25.46-25.46-2.83-2.82-2.83,2.83-22.63,22.62-28.29,28.29-22.62,22.63-2.84,2.82,25.46,25.47-22.62,22.61-2.83,2.83L.04,302.78v5.6l2.78-2.78,22.62-22.64,2.82-2.81,22.63-22.63,48.08,48.08-22.62,22.63-28.29,28.29,2.83,2.83,50.91-50.92,99,99-48.09,48.08-22.62-22.63-2.82-2.83-22.64-22.62-2.83-2.83-2.83,2.83-22.63,22.62-2.81,2.83,2.82,2.83,2.82-2.83,22.63-22.62,22.64,22.62,2.83,2.83,22.62,22.63-25.45,25.45,2.83,2.83,22.61,22.63-48.08,48.07-50.9-50.9-25.46,25.46-2.84,2.82L.04,557.28v5.65l2.78-2.77,22.61-22.63,2.83-2.82,22.63-22.63,48.08,48.08-22.63,22.62-2.82,2.84-22.63,22.61-2.83,2.83,2.84,2.84,2.83-2.83,22.61-22.63,2.84-2.82,76.36-76.37-25.46-25.46,22.63-22.62,25.47-25.46,25.45,25.44,2.82-2.81-2.82-2.84-22.62-22.62,22.61-22.63,2.83-2.82,25.47-25.46,22.61-22.63,2.84-2.82,48.09-48.09,22.61,22.62,25.46,25.47-22.62,22.61-2.84,2.84,28.29,28.29,2.84-2.84-25.46-25.45,25.45-25.45-28.29-28.29-22.61-22.63,50.91-50.91,22.62-22.64,2.83-2.81,22.62-22.63,48.08,48.08-22.61,22.62-28.3,28.3,2.83,2.82,50.91-50.91,99,99-48.08,48.08-22.62-22.63-2.83-2.83-22.64-22.62-2.83-2.83-2.82,2.83-22.64,22.62-2.81,2.83,2.83,2.82,2.81-2.82,22.63-22.62,22.64,22.62,2.83,2.82,22.62,22.64-25.45,25.45,2.83,2.83,22.61,22.62-48.08,48.08-50.9-50.91-25.46,25.47-2.84,2.82-22.61,22.63-22.64-22.64-2.82-2.81-22.62-22.64-25.46-25.45-2.84-2.82-2.82,2.81,28.29,28.29,22.62,22.64,2.83,2.81,25.46,25.46,2.83-2.83,22.61-22.62,2.84-2.82,22.62-22.63,48.08,48.08-22.63,22.62-2.82,2.84-22.63,22.61-2.83,2.83,2.84,2.83,2.83-2.82,22.61-22.63,2.84-2.82,76.36-76.37-25.46-25.46,22.64-22.62,25.46-25.47,25.45,25.45,2.83-2.81-2.82-2.84-22.63-22.62,22.61-22.63h0s2.82-2.84,2.82-2.84h.01s25.46-25.45,25.46-25.45l22.62-22.63,2.83-2.82,48.09-48.09,22.62,22.63,25.46,25.46-22.63,22.61-2.83,2.84,28.29,28.29,2.83-2.84-25.45-25.45,25.45-25.45-28.3-28.29-22.61-22.63,50.91-50.91,22.62-22.64,2.83-2.81,22.63-22.63,48.08,48.08-22.62,22.63-28.29,28.29,2.83,2.83,50.91-50.92,99,99-48.09,48.08-22.62-22.63-2.83-2.83-22.63-22.62-2.83-2.83-2.83,2.83-22.63,22.62-2.82,2.83,2.83,2.83,2.82-2.83,22.63-22.62,22.64,22.62,2.82,2.83,22.62,22.63-25.44,25.45,2.82,2.83,22.62,22.63-48.08,48.07-50.9-50.9-25.47,25.46-2.83,2.82-22.62,22.63-22.63-22.64-2.83-2.81-22.62-22.63-25.45-25.46-2.84-2.82-2.83,2.81,28.29,28.29,22.62,22.64,2.83,2.81,25.46,25.47,2.83-2.83,22.62-22.63,2.83-2.82,22.63-22.63,48.08,48.08-22.63,22.62-2.82,2.84-22.63,22.61-2.83,2.83,2.84,2.84,2.82-2.83,22.62-22.63,2.83-2.82,76.37-76.37-25.46-25.46,22.63-22.62,25.47-25.46,25.44,25.45,2.83-2.82-2.82-2.83-22.63-22.63,22.62-22.63.18.18,28.2-28.2,22.61-22.63,2.84-2.82,48.09-48.09,22.61,22.63,25.46,25.46-22.62,22.61-2.84,2.84,28.29,28.29,2.84-2.84-25.46-25.45,25.45-25.45-28.29-28.29-22.61-22.63,50.91-50.91,22.62-22.64,2.83-2.81,22.62-22.63,48.08,48.08-22.61,22.63-28.29,28.29,2.82,2.82,50.92-50.91,98.99,99-48.08,48.08-22.62-22.63-2.83-2.83-22.64-22.62-2.82-2.83-2.83,2.83-22.64,22.62-2.81,2.83,2.83,2.83,2.81-2.83,22.64-22.62,22.63,22.62,2.83,2.83,22.62,22.63-25.45,25.45,2.83,2.83,22.61,22.62-48.07,48.08-50.91-50.9-25.46,25.46-2.84,2.82-22.61,22.63-22.63-22.64-2.83-2.81-22.62-22.64-25.46-25.45-2.83-2.82-2.83,2.81,28.29,28.29,22.62,22.64,2.83,2.81,25.46,25.46,2.83-2.82,22.61-22.63,2.84-2.82,22.62-22.63,48.08,48.08-22.63,22.62-2.82,2.84-22.63,22.61-2.82,2.83,2.83,2.84,2.83-2.83,22.61-22.63,2.84-2.82,76.37-76.37-25.47-25.46,22.64-22.62,25.46-25.46,25.45,25.44,2.83-2.81-2.82-2.84-22.63-22.62,22.61-22.63,2.84-2.82,25.46-25.46,22.61-22.63,2.84-2.82,48.09-48.09,22.61,22.62,25.47,25.47-22.63,22.61-2.84,2.84,28.29,28.29,2.84-2.84-25.46-25.45,25.45-25.45-28.29-28.29-22.61-22.63,50.91-50.91,22.62-22.64,2.83-2.81,22.63-22.63,48.07,48.08-22.61,22.62-28.29,28.29,2.83,2.83,50.91-50.91,98.99,99-48.08,48.08-22.62-22.63-2.83-2.83-22.63-22.62-2.83-2.83-2.83,2.83-22.63,22.62-2.82,2.83,2.83,2.82,2.81-2.82,22.64-22.63,22.63,22.63,2.83,2.82,22.62,22.64-25.45,25.45,2.83,2.83,22.61,22.62-48.07,48.08-50.91-50.91-25.46,25.47-2.83,2.82-22.62,22.63-22.63-22.64-2.83-2.81-22.62-22.64-25.46-25.45-2.83-2.82-2.83,2.81,28.29,28.29,22.62,22.64,2.83,2.81,25.46,25.46,2.83-2.83,22.61-22.62,2.84-2.82,22.63-22.63,48.07,48.07-22.62,22.63-2.83,2.84-22.62,22.61-2.83,2.83,2.83,2.83,2.83-2.82,22.62-22.63,2.83-2.82,76.37-76.37-25.46-25.46,22.63-22.62,25.46-25.47,25.28,25.28v-5.66l-22.45-22.44,22.45-22.47v-.32l-.04-.04.04-.04v-5.58l-48.09-48.09,22.64-22.62,25.45-25.45v-5.66l-50.91,50.91-124.45-124.45,48.08-48.09,76.37,76.37,2.82-2.83,25.47-25.47,22.62-22.61V-2.61l-22.63-22.63,22.63-22.64v-5.64l-48.08-48.08,48.08-48.08v-5.68ZM53.72,407.43l22.62-22.64,25.46-25.46,50.91,50.91,2.83-2.81-2.83-2.83-22.62-22.63-25.46-25.47-2.83-2.81-2.83,2.81-22.62,22.64-25.46,25.46L2.81,356.52l50.92-50.92-2.84-2.84-28.29,28.29L.04,353.63v5.76l25.4,25.4,22.62,22.64-25.45,25.45,2.82,2.83,22.63,22.63-22.62,22.61-2.84,2.84L.04,506.37v5.65l2.76-2.77,25.46-25.47,22.63-22.61,22.64,22.62,25.45,25.45,2.82,2.84,2.83-2.83-2.82-2.83-22.63-22.63,25.45-25.45-2.83-2.83-25.45,25.45-22.63-22.62-25.46-25.46,22.63-22.64,2.83-2.81ZM.04,404.66v5.54l2.77-2.77-2.77-2.77ZM.04,455.55v5.56l2.78-2.78-2.78-2.78ZM1629.06-256.77l-2.72,2.72-22.62,22.63-2.74,2.74,25.29,25.29-22.63,22.61-2.83,2.83-22.62,22.63-22.63-22.63-2.83-2.82-2.83,2.82,25.46,25.46-99,99-2.84,2.82-22.61,22.63-25.46,25.46-48.09-48.09,22.63-22.62,28.29-28.29-2.83-2.82-50.91,50.91-124.45-124.45,48.08-48.08,76.37,76.37,2.82-2.84,25.46-25.46,22.63-22.62,22.63,22.62,25.46,25.46,2.82,2.84,2.83-2.83-2.82-2.84-22.63-22.63,25.45-25.44-2.83-2.83-25.45,25.45-22.63-22.62-25.47-25.47,22.64-22.63,2.83-2.82,22.62-22.63,25.46-25.46,50.91,50.91,2.83-2.82-2.83-2.82-22.62-22.64-25.46-25.46-2.83-2.82-2.83,2.82-22.62,22.63-25.46,25.47-48.09-48.09,50.92-50.92-2.83-2.83-28.29,28.29-22.62,22.63-2.83,2.82,28.29,28.29,22.62,22.63-25.45,25.45,2.82,2.83,22.63,22.64-22.63,22.61-2.83,2.84-22.62,22.62-22.63-22.63-2.83-2.82-22.62-22.63-25.46-25.46,25.46-25.45-2.83-2.83-2.83,2.83-22.63,22.62-28.29,28.29-22.62,22.63h0l-2.83,2.81,25.66,25.68-22.62,22.61-2.83,2.83-22.62,22.63-22.63-22.62-2.83-2.82-2.83,2.81,25.46,25.46L1120.18-2.38l-2.84,2.83-22.61,22.62-25.46,25.47L1021.18.45l22.63-22.62,28.29-28.3-2.83-2.82-50.92,50.91-124.45-124.45,48.09-48.08,76.36,76.37,2.83-2.84,25.46-25.46,22.63-22.61,22.63,22.62,25.46,25.45,2.82,2.84,2.83-2.83-2.82-2.84-22.63-22.62,25.45-25.45-2.83-2.83-25.45,25.45-22.64-22.62-25.46-25.46,22.64-22.64,2.82-2.81,22.63-22.64,25.46-25.46,50.91,50.91,2.83-2.81-2.83-2.83-22.62-22.64-25.46-25.46-2.83-2.81-2.83,2.81-22.62,22.64-25.46,25.46-48.09-48.09,50.92-50.91-2.83-2.84-28.29,28.29-22.63,22.64-2.82,2.81,28.29,28.29,22.62,22.64-25.45,25.45,2.81,2.82,22.64,22.64-22.63,22.61-2.83,2.84-22.62,22.62-22.63-22.63-2.83-2.81-22.62-22.64-25.46-25.45,25.46-25.46-2.83-2.83-2.84,2.84-22.62,22.61-28.29,28.29-22.62,22.64-2.84,2.82,25.46,25.46-22.62,22.61-2.83,2.83-22.62,22.64-22.63-22.63-2.84-2.82-2.82,2.81,25.46,25.46-99,99.01-2.84,2.82-22.61,22.63-25.47,25.46-48.09-48.09,22.64-22.62L715.72.45l-2.84-2.83-50.91,50.92-124.45-124.45,48.09-48.09,76.36,76.37,2.82-2.84,25.47-25.46,22.62-22.61,22.64,22.62,25.46,25.45,2.82,2.84,2.82-2.83-2.82-2.83-22.62-22.63,25.44-25.45-2.82-2.83-25.45,25.45-22.64-22.62-25.46-25.46,22.63-22.64,2.83-2.81,22.62-22.64,25.47-25.46,50.91,50.91,2.83-2.81-2.83-2.83-22.62-22.63-25.47-25.47-2.82-2.81-2.83,2.81-22.62,22.64-25.47,25.46-48.08-48.08,50.92-50.92-2.84-2.84-28.29,28.29-22.62,22.64-2.83,2.81,28.3,28.29,22.62,22.64-25.45,25.45,2.81,2.83,22.64,22.63-22.63,22.61-2.84,2.84-22.61,22.63-22.63-22.64-2.83-2.81-22.62-22.64-25.46-25.45,25.46-25.46-2.83-2.83-2.84,2.84-22.62,22.61-28.3,28.29-22.62,22.64-2.74,2.73,25.29,25.29-22.63,22.61-2.83,2.83-22.62,22.64-22.63-22.63-2.83-2.82-2.83,2.81L506.33.19l-99,99-2.83,2.82-22.62,22.63-25.46,25.46-48.09-48.09,22.63-22.62,28.29-28.29-2.83-2.82-50.91,50.91L181.06-25.26l48.08-48.09L305.51,3.02l2.82-2.83,25.46-25.47,22.63-22.61,22.63,22.62L404.51.19l2.82,2.83,2.83-2.83-2.82-2.83-22.63-22.63,25.45-25.45-2.83-2.83-25.45,25.45-22.63-22.62-25.47-25.46,22.64-22.64,2.83-2.81,22.62-22.63,25.46-25.47,50.91,50.91,2.83-2.81-2.83-2.83-22.62-22.63-25.46-25.47-2.83-2.81-2.83,2.81-22.62,22.64-25.46,25.46-48.08-48.08,50.91-50.92-2.83-2.84-28.29,28.29-22.62,22.64-2.83,2.81,28.29,28.29,22.62,22.64-25.45,25.45,2.82,2.83,22.63,22.63-22.63,22.61-2.83,2.84-22.62,22.63-22.63-22.64-2.83-2.81-22.62-22.64-25.45-25.45,25.45-25.46-2.83-2.83-2.83,2.84-22.63,22.61-28.29,28.29-22.62,22.64h-.01s-2.83,2.81-2.83,2.81L200.86.2l-22.63,22.61-2.82,2.83-22.62,22.63-22.63-22.62-2.84-2.82-2.83,2.81,25.47,25.46-99.01,99.01-2.83,2.82-22.61,22.62L.04,201.02v5.58l2.8-2.79,25.46-25.46,22.62-22.63,2.83-2.82,48.09-48.09,22.62,22.63,25.46,25.46-22.63,22.62-2.83,2.83,28.29,28.29,2.83-2.83-25.45-25.46,25.44-25.45-28.29-28.29-22.61-22.63,50.91-50.91,22.62-22.63,2.83-2.82,22.63-22.62,48.07,48.07-22.61,22.63-28.29,28.29,2.83,2.83,50.91-50.91,98.99,98.99-48.08,48.09-22.62-22.64-2.83-2.83-22.63-22.62-2.83-2.83-2.83,2.83-22.63,22.62-2.82,2.83,2.83,2.83,2.82-2.83,22.63-22.62,22.63,22.62,2.83,2.83,22.62,22.63-25.45,25.45,2.83,2.83,22.62,22.63-48.08,48.07-50.9-50.9-25.47,25.46-2.83,2.82-22.62,22.63-22.63-22.63-2.83-2.82-22.62-22.63-25.46-25.46-2.83-2.82-2.83,2.82,28.29,28.29,22.62,22.63,2.83,2.82,25.46,25.46,2.83-2.83,22.62-22.63,2.83-2.82,22.63-22.63,48.07,48.08-22.62,22.63-2.82,2.83-22.63,22.62-2.83,2.82,2.84,2.84,2.82-2.83,22.62-22.63,2.83-2.82,76.37-76.36-25.46-25.47,22.63-22.62,25.46-25.46,25.45,25.45,2.83-2.82-2.82-2.83-22.63-22.63,22.62-22.63,2.82-2.83h.01s25.46-25.46,25.46-25.46l22.61-22.62,2.84-2.83,48.09-48.09,22.61,22.63,25.46,25.46-22.62,22.62-2.84,2.83,28.29,28.29,2.84-2.83-25.46-25.46,25.45-25.45-28.29-28.29-22.61-22.62L511.96.15l22.62-22.63,2.83-2.81,22.62-22.63L608.11.15l-22.61,22.63-28.29,28.29,2.82,2.83,50.92-50.91,98.99,98.99-48.08,48.09-22.62-22.64-2.83-2.83-22.64-22.62-2.82-2.82-2.83,2.82-22.64,22.62-2.81,2.83,2.83,2.83,2.81-2.83,22.64-22.62,22.63,22.62,2.83,2.83,22.62,22.64-25.45,25.44,2.83,2.83,22.61,22.63-48.07,48.08-50.91-50.91-25.46,25.47-2.84,2.82-22.61,22.62-22.63-22.63-2.83-2.81-22.62-22.64-25.46-25.46-2.84-2.82-2.82,2.82,28.29,28.29,22.62,22.63,2.83,2.82,25.46,25.46,2.83-2.83,22.61-22.62,2.84-2.83,22.62-22.62,48.08,48.07-22.63,22.63-2.82,2.84-22.63,22.61-2.82,2.83,2.83,2.83,2.83-2.83,22.61-22.62,2.84-2.82,76.37-76.37-25.47-25.46,22.64-22.63,25.46-25.46,25.45,25.45,2.83-2.81-2.82-2.84-22.63-22.63,22.61-22.62.18.18,2.74-2.75,25.46-25.46,22.62-22.63,2.83-2.82,48.09-48.09,22.62,22.63,25.46,25.46-22.63,22.62-2.83,2.83,28.29,28.29,2.83-2.83-25.45-25.46,25.45-25.45-28.3-28.29L817.51.41l50.91-50.91,22.62-22.63,2.83-2.82,22.63-22.62,48.08,48.07-22.62,22.63L913.67.42l2.83,2.83,50.91-50.91,99,98.99-48.09,48.09-22.62-22.64-2.83-2.83-22.63-22.62-2.83-2.83-2.83,2.83-22.63,22.62-2.82,2.83,2.83,2.83,2.82-2.83,22.63-22.62,22.64,22.62,2.82,2.83,22.62,22.63-25.44,25.45,2.82,2.83,22.62,22.63-48.08,48.08-50.9-50.91-25.47,25.46-2.83,2.83-22.61,22.62-22.64-22.63-2.83-2.82-22.62-22.63-25.45-25.46-2.84-2.82-2.83,2.82,28.29,28.29,22.62,22.63,2.83,2.82,25.47,25.46,2.82-2.83,22.62-22.63,2.83-2.82,22.63-22.62,48.08,48.07-22.63,22.63-2.82,2.83-22.63,22.62-2.83,2.83,2.84,2.83,2.83-2.83,22.61-22.62,2.83-2.83,76.37-76.36-25.46-25.47,22.63-22.62,25.47-25.46,25.44,25.45,2.83-2.82-2.82-2.83-22.63-22.63,22.62-22.63,2.83-2.82,25.47-25.46,22.61-22.63,2.83-2.82,48.1-48.09,22.61,22.63,25.46,25.46-22.63,22.61-2.83,2.84,28.29,28.29,2.84-2.83-25.46-25.46,25.45-25.45-28.29-28.29-22.62-22.63,50.92-50.91,22.62-22.63,25.45-25.45,48.08,48.08-22.62,22.63-28.29,28.29,2.83,2.83,50.91-50.91L1422.79.42l-48.09,48.08-22.62-22.63-2.82-2.83-22.64-22.62-2.83-2.83-2.83,2.83-22.63,22.62-2.81,2.83,2.82,2.83,2.82-2.83,22.63-22.62,22.64,22.62,2.83,2.83,22.62,22.63-25.45,25.45,2.83,2.83,22.61,22.63-48.08,48.07-50.9-50.9-25.46,25.46-2.84,2.82-22.61,22.63-22.64-22.63-2.83-2.82-22.62-22.63-25.45-25.46-2.84-2.82-2.83,2.81,28.3,28.3,22.62,22.63,2.82,2.81,25.47,25.47,2.83-2.83,22.61-22.63,2.83-2.82,22.63-22.63,48.08,48.08-22.63,22.63-2.82,2.83-22.63,22.62-2.83,2.82,2.84,2.84,2.83-2.83,22.61-22.63,2.84-2.82,76.36-76.37-25.46-25.46,22.63-22.62,25.47-25.46,25.45,25.45,2.82-2.82-2.82-2.83-22.62-22.63,22.61-22.63-.2-.2,2.83-2.82,25.47-25.46,22.61-22.63,2.84-2.82,48.09-48.09,22.61,22.63,25.46,25.46-22.62,22.61-2.84,2.84,28.29,28.29,2.84-2.84-25.46-25.45,25.45-25.45-28.29-28.29-22.61-22.63,50.91-50.91,22.62-22.64,2.83-2.81,22.62-22.63v-5.48l-22.51-22.51,22.51-22.51v-5.67ZM1580.67-509.03l22.62-22.64,25.46-25.46.31.31v-5.64l-.31-.31-2.83,2.81-22.62,22.64-25.46,25.46-48.09-48.08,50.92-50.92-2.83-2.84-28.29,28.29-22.62,22.64-2.83,2.81,28.29,28.29,22.62,22.64-25.45,25.45,2.81,2.82,22.64,22.64-22.63,22.61-2.83,2.84-22.62,22.62-22.63-22.63-2.83-2.81-22.62-22.64-25.46-25.45,25.46-25.46-2.83-2.83-2.84,2.84-22.62,22.61-28.29,28.29-22.62,22.64-2.75,2.73,25.29,25.29-22.63,22.61-2.83,2.83-22.62,22.64-22.62-22.63-2.84-2.82-2.83,2.81,25.47,25.46-99.01,99.01-2.83,2.82-22.62,22.62-25.46,25.47-48.09-48.09,22.64-22.62,28.29-28.29-2.84-2.83-50.91,50.92-124.45-124.45,48.08-48.09,76.37,76.37,2.82-2.84,25.46-25.46,22.63-22.61,22.64,22.62,25.45,25.45,2.82,2.84,2.83-2.83-2.82-2.83-22.63-22.63,25.45-25.45-2.83-2.83-25.45,25.45-22.63-22.62-25.46-25.46,22.63-22.64,2.83-2.81,22.62-22.64,25.46-25.46,50.91,50.91,2.83-2.81-2.83-2.83-22.62-22.64-25.46-25.46-2.83-2.81-2.83,2.81-22.62,22.64-25.46,25.46-48.08-48.08,50.92-50.92-2.84-2.84-28.29,28.29-22.62,22.64-2.83,2.81,28.29,28.29,22.62,22.64-25.45,25.45,2.82,2.83,22.63,22.63-22.62,22.61-2.84,2.84-22.61,22.63-22.64-22.64-2.83-2.81-22.62-22.64-25.45-25.45,25.45-25.46-2.82-2.83-2.84,2.84-22.63,22.61-28.29,28.29-22.62,22.64h0s-2.82,2.8-2.82,2.8l25.66,25.68-22.63,22.61-2.83,2.83-22.62,22.64-22.63-22.63-2.83-2.82-2.83,2.81,25.46,25.47-99,99-2.83,2.82-22.62,22.63-25.46,25.46-48.09-48.09,22.63-22.62,28.3-28.29-2.84-2.82-50.91,50.91-124.45-124.45,48.08-48.09,76.37,76.37,2.82-2.83,25.46-25.47,22.63-22.61,22.63,22.62,25.46,25.46,2.82,2.83,2.83-2.83-2.82-2.83-22.63-22.63,25.45-25.45-2.83-2.83-25.45,25.45-22.63-22.62-25.46-25.46,22.63-22.64,2.83-2.81,22.62-22.63,25.46-25.47,50.91,50.91,2.83-2.81-2.83-2.83-22.62-22.63-25.46-25.47-2.83-2.81-2.83,2.81-22.62,22.64-25.46,25.46-48.08-48.08,50.92-50.92-2.84-2.84-28.29,28.3-22.62,22.63-2.83,2.81,28.29,28.3,22.62,22.63-25.45,25.45,2.82,2.83,22.63,22.63-22.63,22.61-2.83,2.84-22.61,22.63-22.64-22.64-2.83-2.81-22.62-22.64-25.45-25.45,25.45-25.46-2.83-2.83-2.83,2.84-22.63,22.61-28.29,28.29-22.62,22.64-2.83,2.82,25.46,25.46-22.63,22.62-2.83,2.82-22.62,22.64-22.63-22.63-2.83-2.82-2.83,2.81,25.46,25.47-99,99-2.84,2.82-22.61,22.63-25.46,25.46-48.09-48.09,22.63-22.62,28.29-28.29-2.83-2.82-50.91,50.91-124.45-124.45,48.08-48.08,76.37,76.36,2.82-2.83,25.46-25.47,22.63-22.61,22.63,22.62,25.46,25.46,2.82,2.83,2.83-2.83-2.82-2.83-22.63-22.63,25.45-25.45-2.83-2.83-25.45,25.45-22.63-22.62-25.47-25.46,22.64-22.63,2.83-2.82,22.62-22.63,25.46-25.47,50.91,50.92,2.83-2.82-2.83-2.83-22.62-22.63-25.46-25.46-2.83-2.82-2.83,2.82-22.62,22.63-25.46,25.46-48.09-48.08,50.92-50.92-2.83-2.83-28.29,28.29-22.62,22.63-2.83,2.82,28.29,28.29,22.62,22.63-25.45,25.45,2.81,2.83,22.64,22.63-22.63,22.62-2.83,2.83-22.62,22.63-22.63-22.64-2.83-2.81-22.62-22.63-25.46-25.46,25.46-25.46-2.83-2.82-2.83,2.83-22.63,22.61-28.29,28.3-22.62,22.63-2.75,2.73,25.29,25.29-22.63,22.62-2.82,2.83-22.63,22.63-22.62-22.63-2.84-2.82-2.83,2.82,25.47,25.46-99.01,99-2.83,2.82-22.61,22.63-25.47,25.46-48.09-48.09,22.64-22.62,28.29-28.29-2.84-2.82-50.91,50.91L.04-206.28v5.66l48.08,48.08-22.61,22.62L.04-104.45v5.65l50.91-50.91,99,99L101.87-2.63l-22.62-22.63-2.83-2.83-22.64-22.62-2.83-2.83-2.82,2.83-22.64,22.62-2.81,2.83,2.83,2.82,2.81-2.82,22.63-22.62,22.64,22.62,2.83,2.82L99.04.2l-25.45,25.45,2.83,2.83,22.61,22.62-48.07,48.08L.05,48.27h-.01v5.67l48.08,48.08-22.63,22.62-2.82,2.84L.04,150.09v5.65h.01s2.83-2.81,2.83-2.81l22.61-22.63,2.84-2.82L104.69,51.11l-25.46-25.46L101.87,3.03l25.46-25.47,25.45,25.45,2.83-2.81-2.82-2.84-22.63-22.62,22.61-22.63h0s2.82-2.84,2.82-2.84h.01s25.46-25.45,25.46-25.45l22.62-22.63,2.83-2.82,48.09-48.09,22.62,22.63,25.46,25.46-22.63,22.61-2.83,2.84,28.29,28.29,2.83-2.84-25.45-25.45,25.45-25.45-28.3-28.29-22.61-22.63,50.91-50.91,22.62-22.64,2.83-2.81,22.63-22.63,48.08,48.08-22.62,22.63-28.29,28.29,2.83,2.83,50.91-50.92,99,99-48.09,48.08-22.62-22.63-2.83-2.83-22.63-22.62-2.83-2.83-2.83,2.83-22.63,22.62-2.82,2.83,2.83,2.83,2.82-2.83,22.63-22.62,22.64,22.62,2.82,2.83,22.62,22.63-25.44,25.45,2.82,2.83L455.41.19l-48.08,48.07L356.43-2.64l-25.47,25.46-2.83,2.82-22.62,22.63-22.63-22.64-2.83-2.81L257.43.19l-25.45-25.46-2.84-2.82-2.83,2.81,28.29,28.29,22.62,22.64,2.83,2.81,25.46,25.47,2.83-2.83,22.62-22.63,2.83-2.82,22.63-22.63,48.08,48.08-22.63,22.62-2.82,2.84-22.63,22.61-2.83,2.83,2.84,2.84,2.82-2.83,22.62-22.63,2.83-2.82L461.07.19l-25.46-25.46,22.63-22.62,25.47-25.46,25.44,25.45,2.83-2.82-2.82-2.83-22.63-22.63,22.62-22.63.18.18,2.74-2.74,25.46-25.46,22.61-22.63,2.84-2.82,48.09-48.09,22.61,22.63,25.46,25.46-22.62,22.61-2.84,2.84,28.29,28.29,2.84-2.84-25.46-25.45,25.45-25.45-28.29-28.29-22.61-22.63,50.91-50.91,22.62-22.64,2.83-2.81,22.62-22.63,48.08,48.08-22.61,22.63-28.29,28.29,2.82,2.82,50.92-50.91,98.99,99-48.08,48.08-22.62-22.63-2.83-2.83-22.64-22.62-2.82-2.83-2.83,2.83-22.64,22.62-2.81,2.83,2.83,2.83,2.81-2.83,22.64-22.62,22.63,22.62,2.83,2.83,22.62,22.63-25.45,25.45,2.83,2.83,22.61,22.62-48.07,48.08-50.91-50.9-25.46,25.46-2.84,2.82-22.61,22.63-22.63-22.64-2.83-2.81-22.62-22.64-25.46-25.45-2.83-2.82-2.83,2.81,28.29,28.29,22.62,22.64,2.83,2.81,25.46,25.46,2.83-2.82,22.61-22.63,2.84-2.82,22.62-22.63L760.96.45l-22.63,22.62-2.82,2.84-22.63,22.61-2.82,2.83,2.83,2.84,2.83-2.83,22.61-22.63,2.84-2.82,76.37-76.37-25.47-25.46,22.64-22.62,25.46-25.46,25.45,25.44,2.83-2.81-2.82-2.84-22.63-22.62,22.61-22.63,2.84-2.82,25.46-25.46,22.61-22.63,2.84-2.82,48.09-48.09,22.61,22.62,25.47,25.47-22.63,22.61-2.84,2.84,28.29,28.29,2.84-2.84-25.46-25.45,25.45-25.45-28.29-28.29-22.61-22.63,50.91-50.91,22.62-22.64,2.83-2.81,22.63-22.63,48.07,48.08-22.61,22.62-28.29,28.29,2.83,2.83,50.91-50.91,98.99,99-48.08,48.08-22.62-22.63-2.83-2.83-22.63-22.62-2.83-2.83-2.83,2.83-22.63,22.62-2.82,2.83,2.83,2.82,2.81-2.82,22.64-22.63,22.63,22.63,2.83,2.82,22.62,22.64-25.45,25.45,2.83,2.83,22.61,22.62-48.07,48.08-50.91-50.91-25.46,25.47-2.83,2.82-22.62,22.63-22.63-22.64-2.83-2.81-22.62-22.64-25.46-25.45-2.83-2.82-2.83,2.81,28.29,28.29,22.62,22.64,2.83,2.81,25.46,25.46,2.83-2.83,22.61-22.62,2.84-2.82,22.63-22.63,48.07,48.07-22.62,22.63-2.83,2.84-22.62,22.61-2.83,2.83,2.83,2.83,2.83-2.82,22.62-22.63,2.83-2.82,76.37-76.37-25.46-25.46,22.63-22.62,25.46-25.47,25.45,25.45,2.83-2.81-2.82-2.84-22.63-22.62,22.61-22.63-.2-.2,2.83-2.83h.01s25.46-25.46,25.46-25.46l22.62-22.62,2.83-2.83,48.09-48.09,22.61,22.63,25.47,25.46-22.63,22.62-2.84,2.83,28.3,28.29,2.83-2.83-25.45-25.46,25.44-25.45-28.29-28.29-22.61-22.62,50.91-50.92,22.62-22.63,2.83-2.81,22.63-22.63,48.07,48.07-22.61,22.63-28.29,28.29,2.83,2.83,50.91-50.91,98.99,98.99-48.08,48.09-22.62-22.64-2.83-2.83-22.63-22.62-2.83-2.82-2.83,2.82-22.63,22.63-2.82,2.82,2.83,2.83,2.82-2.83,22.63-22.62,22.63,22.62,2.83,2.83,22.62,22.64-25.45,25.44,2.83,2.83,22.62,22.63-48.08,48.08-50.9-50.91-25.47,25.47-2.83,2.82-22.62,22.62-22.63-22.63-2.83-2.81-22.62-22.64-25.46-25.46-2.83-2.82-2.83,2.82,28.29,28.29,22.62,22.63,2.83,2.82,25.46,25.46,28.28-28.28,22.63-22.62,48.07,48.07-22.62,22.63-2.82,2.84-22.63,22.61-2.83,2.83,2.84,2.83,2.82-2.83,22.62-22.62,2.83-2.82,76.37-76.37-25.46-25.46,22.63-22.63,25.46-25.46,25.45,25.45,2.83-2.81-2.82-2.84-22.63-22.63,22.62-22.62.18.18,2.74-2.74,25.46-25.47,22.5-22.52v-6.49l-.31.31-2.84,2.82-22.61,22.62-25.46,25.47-48.09-48.09,22.63-22.62,28.29-28.3-2.83-2.82-50.91,50.92-124.46-124.46,48.09-48.08,76.37,76.37,2.82-2.84,25.46-25.46,22.63-22.61,22.63,22.62,25.46,25.45,2.82,2.84.31-.31v-5.06l-.3-.3-22.63-22.62,22.93-22.93v-5.04l-.31-.31-25.45,25.45-22.63-22.62-25.47-25.46,22.64-22.64,2.83-2.81ZM.04,251.91v5.6l2.8-2.78-2.8-2.82ZM.04,99.19v5.66l2.84-2.84L.04,99.19ZM.04-155.38v5.68l2.84-2.84-2.84-2.84ZM28.33,25.65L53.78.2l-2.83-2.83-25.44,25.45L2.87.2.04-2.63V3.03l22.64,22.62,25.45,25.45,2.82,2.84,2.83-2.83-2.82-2.84-22.63-22.62ZM101.87-53.54l-22.62-22.64-25.47-25.46-2.83-2.81-2.82,2.81-22.62,22.64L.04-53.54v5.64l2.83-2.81,22.62-22.64,25.47-25.46,50.91,50.91,2.82-2.81-2.82-2.83ZM1326.37-814.7h-6.1l.25.25-99,99.01-2.84,2.82-22.61,22.62-25.46,25.47-48.09-48.09,22.63-22.62,28.29-28.3-2.83-2.82-50.91,50.92-99.26-99.26h-5.48l-22.63,22.61-2.83,2.83-22.62,22.64-22.62-22.63-2.84-2.82-2.83,2.81,25.47,25.46-99.01,99.01-2.83,2.82-22.62,22.62-25.46,25.47-48.09-48.09,22.64-22.62,28.29-28.29-2.84-2.83-50.91,50.92-124.45-124.45,25.45-25.46h-5.67l-22.61,22.63h0s-2.82,2.8-2.82,2.8l25.66,25.68-22.63,22.61-2.83,2.83-22.62,22.64-22.63-22.63-2.83-2.82-2.83,2.81,25.46,25.47-99,99-2.83,2.82-22.62,22.63-25.46,25.46-48.09-48.09,22.63-22.62,28.3-28.29-2.84-2.82-50.91,50.91-124.45-124.45,48.08-48.09,76.37,76.37,2.82-2.83,25.46-25.47,22.63-22.61,22.63,22.62,25.46,25.46,2.82,2.83,2.83-2.83-2.82-2.83-22.63-22.63,25.45-25.45-2.83-2.83-25.45,25.45-22.63-22.62-25.46-25.46,22.63-22.64,2.83-2.81.2-.2h-6.06l.2.2-25.45,25.45,2.82,2.83,22.63,22.63-22.63,22.61-2.83,2.84-22.61,22.63-22.64-22.64-2.83-2.81-22.62-22.64-25.45-25.45,25.45-25.46-.19-.19h-5.27l-.2.2-22.63,22.61-28.29,28.29-22.62,22.64-2.83,2.82,25.46,25.46-22.63,22.62-2.83,2.82-22.62,22.64-22.63-22.63-2.83-2.82-2.83,2.81,25.46,25.47-99,99-2.84,2.82-22.61,22.63-25.46,25.46-48.09-48.09,22.63-22.62,28.29-28.29-2.83-2.82-50.91,50.91L.04-613.4v5.48l98.59,98.6-48.08,48.08-22.62-22.63-2.83-2.83-22.63-22.62-2.43-2.43v5.66l22.23,22.22,2.83,2.82,22.62,22.64-25.45,25.45,25.45,25.45L.04-359.83v5.67l53.34-53.34-25.46-25.46,22.63-22.62,25.46-25.47,25.45,25.45,2.83-2.81-2.82-2.84-22.63-22.62,22.62-22.63.18.18,2.73-2.74,25.47-25.46,22.61-22.63,2.84-2.82,48.09-48.09,22.61,22.62,25.46,25.47-22.62,22.61-2.84,2.84,28.29,28.29,2.84-2.84-25.46-25.45,25.45-25.45-28.29-28.29-22.61-22.63,50.91-50.91,22.62-22.64,2.83-2.81,22.62-22.63,48.08,48.08-22.61,22.62-28.3,28.29,2.83,2.83,50.91-50.91,99,99-48.08,48.08-22.62-22.63-2.83-2.83-22.64-22.62-2.83-2.83-2.82,2.83-22.64,22.62-2.81,2.83,2.83,2.82,2.81-2.82,22.63-22.62,22.64,22.62,2.83,2.82,22.62,22.64-25.45,25.45,2.83,2.83,22.61,22.62-48.08,48.08-50.9-50.91-25.46,25.47-2.84,2.82-22.61,22.63-22.64-22.64-2.82-2.81-22.62-22.64-25.46-25.45-2.84-2.82-2.82,2.81,28.29,28.29,22.62,22.64,2.83,2.81,25.46,25.46,2.83-2.83,22.61-22.62,2.84-2.82,22.62-22.63,48.08,48.07-22.63,22.63-2.82,2.84-22.63,22.61-2.83,2.83,2.84,2.83,2.83-2.82,22.61-22.63,2.84-2.82,76.36-76.37-25.46-25.46,22.64-22.62,25.46-25.47,25.45,25.45,2.83-2.81-2.82-2.84-22.63-22.62,22.61-22.63,2.84-2.82,25.46-25.47,22.61-22.62,2.84-2.83,48.09-48.09,22.61,22.63,25.46,25.46-22.62,22.62-2.84,2.83,28.29,28.3,2.84-2.84-25.46-25.46,25.45-25.45-28.29-28.29-22.61-22.62,50.91-50.92,22.62-22.63,2.83-2.81,22.62-22.63,48.08,48.07-22.61,22.63-28.29,28.29,2.82,2.83,50.92-50.91,98.99,98.99-48.08,48.09-22.62-22.64-2.83-2.82-22.64-22.63-2.82-2.82-2.83,2.82-22.64,22.63-2.81,2.82,2.83,2.83,2.81-2.83,22.64-22.62,22.63,22.62,2.83,2.83,22.62,22.64-25.45,25.45,2.83,2.82,22.61,22.63-48.07,48.08-50.91-50.91-25.46,25.47-2.84,2.82-22.61,22.62-22.63-22.63-2.83-2.81-22.62-22.64-25.46-25.45-2.83-2.83-2.83,2.82,28.29,28.29,22.62,22.63,2.83,2.82,25.46,25.46,2.83-2.83,22.61-22.62,2.84-2.83,22.62-22.62,48.08,48.07-22.63,22.63-2.82,2.84-22.63,22.61-2.82,2.83,2.83,2.83,2.83-2.83,22.61-22.62,2.84-2.82,76.37-76.37-25.47-25.46,22.64-22.62,25.46-25.47,25.45,25.45,2.83-2.81-2.82-2.84-22.63-22.63,22.61-22.62-.2-.2,2.83-2.83h.01l25.46-25.46,22.61-22.63,2.84-2.82,48.09-48.09,22.61,22.63,25.47,25.46-22.63,22.62-2.84,2.83,28.29,28.29,2.84-2.83-25.46-25.46,25.45-25.45-28.29-28.29-22.61-22.63,50.91-50.91,22.62-22.63,2.83-2.82,22.63-22.62,48.07,48.07-22.61,22.63-28.29,28.29,2.83,2.83,50.91-50.91,98.99,98.99-48.08,48.09-22.62-22.64-2.83-2.83-22.63-22.62-2.83-2.83-2.83,2.83-22.63,22.62-2.82,2.83,2.83,2.83,2.81-2.83,22.64-22.62,22.63,22.62,2.83,2.83,22.62,22.63-25.45,25.45,2.83,2.83,22.61,22.63-48.07,48.08-50.91-50.91-25.46,25.46-2.84,2.83-22.61,22.62-22.63-22.63-2.83-2.82-22.62-22.63-25.46-25.46-2.83-2.82-2.83,2.82,28.29,28.29,22.62,22.63,2.83,2.82,25.46,25.46,2.83-2.83,22.61-22.63,2.84-2.82,22.63-22.63,48.07,48.08-22.62,22.63-2.83,2.83-22.62,22.62-2.83,2.83,2.83,2.83,2.83-2.83,22.62-22.62,2.83-2.83,76.37-76.36-25.46-25.47,22.63-22.62,25.46-25.46,25.45,25.45,2.83-2.82-2.82-2.83-22.63-22.63,22.61-22.63.18.18,2.74-2.74,25.47-25.46,22.61-22.63,2.84-2.82,48.09-48.09,22.61,22.63,25.46,25.46-22.63,22.61-2.83,2.84,28.29,28.29,2.84-2.83-25.46-25.46,25.45-25.45-28.29-28.29-22.62-22.63,50.92-50.91.22-.22ZM.04-409.94v4.87l2.43-2.43-2.43-2.44ZM50.55-512.15l-22.62-22.64-25.46-25.46-2.43-2.41v5.64l50.51,50.51,2.83-2.81-2.83-2.83ZM.04-460.84v4.86l2.43-2.43-2.43-2.43ZM104.41-763.59l22.62-22.63,25.46-25.47,50.91,50.92,2.83-2.82-2.83-2.83-22.62-22.63-25.65-25.65h-5.28l-.19.19-22.62,22.63-25.46,25.46-48.09-48.08.2-.2h-5.66l-.19.19,28.29,28.29,22.62,22.63-25.45,25.45,2.81,2.83,22.64,22.63-22.63,22.62-2.83,2.83-22.62,22.63-22.63-22.64-2.83-2.81-22.62-22.63-2.55-2.55v5.67l50.63,50.62,2.82-2.83,25.46-25.47,22.63-22.61,22.63,22.62,25.46,25.46,2.82,2.83,2.83-2.83-2.82-2.83-22.63-22.63,25.45-25.45-2.83-2.83-25.45,25.45-22.63-22.62-25.47-25.46,22.64-22.63,2.83-2.82ZM98.95-814.7l-.2.2,2.83,2.83,3.03-3.03h-5.66ZM.04-766.14v5.09l2.55-2.55-2.55-2.54ZM28.05-738.14l25.44-25.45-28.29-28.29-22.61-22.63.19-.19H.04v3.3l22.33,22.35,25.47,25.46-22.63,22.61-2.84,2.84,28.3,28.29,2.83-2.83-25.45-25.46ZM302.64-814.7l-.22.22-22.61,22.63-25.47,25.46-48.09-48.09.22-.22h-6.1l51.11,51.11-48.08,48.08-22.62-22.63-2.83-2.83-22.63-22.62-2.83-2.83-2.83,2.83-22.63,22.62-2.82,2.83,2.83,2.83,2.82-2.83,22.63-22.62,22.63,22.62,2.83,2.83,22.62,22.63-25.45,25.45,2.83,2.83,22.62,22.63-48.08,48.07-50.9-50.9-25.47,25.46-2.83,2.82-22.62,22.63-22.63-22.63-2.83-2.82-22.62-22.63-2.55-2.55v5.66l22.34,22.35,2.83,2.81,25.46,25.47,2.83-2.83,22.61-22.63,2.84-2.82,22.63-22.63,48.07,48.08-22.62,22.63-2.82,2.83-22.63,22.62-2.83,2.82,2.84,2.84,2.82-2.83,22.62-22.63,2.83-2.82,76.37-76.37-25.46-25.46,22.63-22.62,25.46-25.46,25.45,25.45,2.83-2.82-2.82-2.83-22.63-22.63,22.62-22.63,2.83-2.82,25.46-25.46,22.62-22.63,2.83-2.82.2-.2h-5.61ZM251.74-814.7l-.22.22,2.83,2.83,3.05-3.05h-5.66ZM409.88-814.5l-.2-.2h-5.66l.2.2-22.63,22.61-2.83,2.84,28.29,28.29,2.83-2.84-25.45-25.45,25.45-25.45ZM610.7-766.42l-22.63-22.63,22.62-22.63-.2-.2,2.82-2.82h-5.64l.2.2-48.09,48.08-22.62-22.63-2.83-2.83-22.63-22.62-.2-.2h-5.26l-.2.2-22.63,22.62-2.82,2.83,2.83,2.83,2.82-2.83,22.63-22.62,22.64,22.62,2.82,2.83,22.62,22.63-25.44,25.45,2.82,2.83,22.62,22.63-48.08,48.07-50.9-50.9-25.47,25.46-2.83,2.82-22.61,22.63-22.64-22.64-2.83-2.81-22.62-22.63-25.45-25.46-2.84-2.82-2.83,2.81,28.29,28.29,22.62,22.64,2.83,2.81,25.47,25.47,2.82-2.83,22.62-22.63,2.83-2.82,22.63-22.63,48.08,48.08-22.63,22.63-2.82,2.83-22.63,22.61-2.83,2.83,2.84,2.84,2.83-2.83,22.61-22.63,2.83-2.82,76.37-76.37-25.46-25.46,22.63-22.62,25.47-25.46,25.44,25.45,2.83-2.82-2.82-2.83ZM562.41-814.7h-5.64l3.01,3.01,2.83-2.81-.2-.2ZM842.43-789.25l25.45-25.45h-5.66l-22.62,22.62-22.63-22.62h-5.66l-22.62,22.61-2.84,2.84-22.61,22.63-22.64-22.64-2.83-2.81-22.61-22.63h-5.67l53.74,53.74,2.82-2.84,25.46-25.46,22.63-22.61,22.64,22.62,25.45,25.45,2.82,2.84,2.83-2.83-2.82-2.83-22.63-22.63ZM915.96-811.87l2.83-2.83h-5.65l-25.45,25.45,2.83,2.83,22.61,22.62-48.08,48.08-50.9-50.9-25.46,25.46-2.84,2.82-22.61,22.63-22.64-22.64-2.83-2.81-22.62-22.64-25.45-25.45-2.84-2.82-2.83,2.81,28.3,28.29,22.62,22.64,2.82,2.81,25.47,25.46,2.83-2.82,22.61-22.63,2.83-2.82,22.63-22.63,48.08,48.08-22.63,22.62-2.82,2.84-22.63,22.61-2.83,2.83,2.84,2.84,2.83-2.83,22.61-22.63,2.84-2.82,76.36-76.37-25.46-25.46,22.63-22.62ZM760.4-814.7l2.83,2.83,2.83-2.83h-5.66ZM964.07-814.7l2.81,2.81,2.82-2.81h-5.63ZM1275-814.7h-5.66l.25.25-48.07,48.08-48.33-48.33h-5.16l-22.88,22.89-2.83,2.82-22.62,22.63-22.63-22.64-2.83-2.81-22.62-22.64-.25-.25h-5.66l3.08,3.08,22.62,22.64,2.83,2.81,25.46,25.46,2.83-2.83,22.61-22.62,2.84-2.82,22.63-22.63,48.07,48.07-22.62,22.63-2.83,2.84-22.62,22.61-2.83,2.83,2.83,2.83,2.83-2.82,22.62-22.63,2.83-2.82,76.37-76.37-.26-.26ZM1116.61-814.7l3.09,3.09,2.82-2.84.25-.25h-6.16ZM1224.09-814.7h-5.64l.25.25,2.82,2.84,2.83-2.83-.26-.26ZM155.17-305.71l22.62-22.63,25.46-25.46,50.92,50.91,2.82-2.82-2.82-2.83-22.62-22.63-25.47-25.46-2.83-2.82-2.82,2.82-22.62,22.63-25.47,25.46-48.08-48.08,50.92-50.92-2.84-2.83-28.29,28.29-22.62,22.63-2.83,2.82,28.29,28.29,22.62,22.63-25.44,25.45,2.81,2.83,22.63,22.63-22.62,22.62-2.84,2.83-22.61,22.63-22.64-22.63-2.83-2.82-22.62-22.63-25.45-25.46,25.45-25.45-2.82-2.83-2.84,2.83-22.63,22.62L.04-258.07v5.67l25.02-25.02,76.37,76.36,2.82-2.83,25.47-25.46,22.62-22.62,22.64,22.62,25.45,25.46,2.82,2.83,2.83-2.82-2.82-2.84-22.63-22.63,25.45-25.45-2.83-2.82-25.44,25.44-22.64-22.62-25.46-25.46,22.63-22.63,2.83-2.82ZM1626.24-814.7l-48.34,48.34-2.84,2.82-22.61,22.63-25.46,25.47-48.09-48.1,22.63-22.62,28.29-28.29-.25-.25h-5.15l-48.34,48.34-48.34-48.34h-5.66l.22.22-22.62,22.63-28.29,28.29,2.83,2.83,50.91-50.91,99,98.99-48.08,48.08-22.63-22.63-2.82-2.83-22.64-22.62-2.83-2.83-2.82,2.83-22.64,22.62-2.81,2.83,2.82,2.83,2.82-2.83,22.63-22.62,22.64,22.62,2.83,2.83,22.62,22.63-25.45,25.45,2.83,2.83,22.61,22.63-48.08,48.07-50.9-50.9-25.46,25.46-2.84,2.82-22.61,22.63-22.64-22.63-2.83-2.82-22.62-22.63-25.45-25.46-2.84-2.82-2.83,2.81,28.3,28.3,22.62,22.63,2.82,2.82,25.47,25.46,2.83-2.83,22.61-22.63,2.83-2.82,22.63-22.63,48.08,48.08-22.63,22.63-2.82,2.83-22.63,22.62-2.83,2.82,2.84,2.84,2.83-2.83,22.61-22.63,2.84-2.82,76.36-76.36-25.46-25.47,22.64-22.62,25.46-25.46,25.45,25.45,2.83-2.82-2.83-2.83-22.62-22.63,22.61-22.63,2.84-2.82,25.46-25.46,22.61-22.63,2.84-2.82,48.09-48.09.27.27v-3.32h-2.82ZM1473-814.7l3.08,3.08,2.83-2.83.25-.25h-6.16ZM1574.81-814.7l.25.25-22.62,22.63-2.82,2.84-22.63,22.61-2.83,2.83,2.84,2.83,2.82-2.83,22.62-22.62,2.83-2.82,25.72-25.72h-6.18ZM1606.16-687.2l-2.84-2.82-2.82,2.81,28.56,28.56v-5.65l-22.9-22.9ZM1629.06-766.13l-.27-.27-2.84,2.84-22.63,22.61-28.29,28.29-22.62,22.64-2.83,2.82,25.46,25.46-22.63,22.62-2.83,2.82-22.62,22.64-22.62-22.63-2.84-2.82-2.83,2.81,25.47,25.47-99.01,99-2.83,2.82-22.62,22.63-25.46,25.46-48.09-48.09,22.64-22.62,28.29-28.29-2.84-2.82-50.91,50.91-124.45-124.45,48.08-48.08,76.37,76.36,2.82-2.83,25.46-25.47,22.63-22.61,22.64,22.62,25.45,25.46,2.82,2.83,2.83-2.82-2.82-2.84-22.63-22.63,25.45-25.45-2.83-2.83-25.45,25.45-22.63-22.62-25.46-25.46,22.63-22.63,2.83-2.82,22.62-22.63,25.46-25.47,50.92,50.92,2.82-2.82-2.82-2.83-22.63-22.63-25.46-25.46-2.83-2.82-25.45,25.45-25.46,25.46-48.08-48.08,50.92-50.92-.22-.22h-5.23l-25.68,25.68-22.62,22.63-2.83,2.82,28.29,28.29,22.62,22.63-25.45,25.45,2.82,2.83,22.63,22.63-22.62,22.62-2.84,2.83-22.61,22.63-22.64-22.64-2.83-2.81-22.62-22.63-25.45-25.46,25.45-25.46-2.82-2.82-2.84,2.83-22.63,22.61-28.29,28.3-22.62,22.63-2.75,2.73,25.29,25.29-25.45,25.45-22.62,22.63-22.63-22.63-2.83-2.82-2.83,2.82,25.46,25.46-99,99-2.84,2.82-22.61,22.63-25.46,25.46-48.09-48.09,22.63-22.62,28.29-28.29-2.83-2.82-50.92,50.91-124.45-124.45,48.09-48.08,76.36,76.36,2.83-2.83,25.46-25.46,22.63-22.62,22.63,22.62,25.46,25.46,2.82,2.83,2.83-2.82-2.82-2.84-22.63-22.63,25.45-25.45-2.83-2.82-25.45,25.44-22.64-22.62-25.46-25.46,22.64-22.63,2.82-2.82,22.63-22.63,25.46-25.46,50.91,50.91,2.83-2.82-2.83-2.83-22.62-22.63-25.46-25.46-2.83-2.82-2.83,2.82-22.62,22.63-25.46,25.46-48.09-48.08,50.92-50.92-2.83-2.83-28.3,28.29-22.62,22.63-2.82,2.82,28.29,28.29,22.62,22.63-25.45,25.45,2.81,2.83,22.64,22.63-22.63,22.62-2.84,2.83-22.61,22.63-22.63-22.63-2.83-2.82-22.62-22.63-25.46-25.46,25.46-25.45-2.83-2.83-2.84,2.83-50.91,50.91-22.62,22.63h-.01l-2.83,2.81,25.66,25.68-22.62,22.61-2.83,2.83-22.62,22.63-22.63-22.62-2.84-2.83-2.82,2.82,25.46,25.46-99,99-2.84,2.82-22.61,22.63-25.47,25.46-48.09-48.09,22.64-22.62,28.29-28.29-2.84-2.82-50.91,50.91-124.45-124.45,48.09-48.08,76.36,76.37,2.82-2.84,25.47-25.46,22.62-22.61,22.64,22.62,25.46,25.45,2.82,2.84,2.82-2.83-2.82-2.84-22.62-22.62,25.44-25.45-2.82-2.83-25.45,25.45-22.64-22.62-25.46-25.47,22.63-22.63,2.83-2.82,22.62-22.63,25.47-25.46,50.91,50.91,2.83-2.82-2.83-2.82-22.62-22.64-25.46-25.46-2.83-2.82-2.83,2.82-22.62,22.63-25.47,25.47-48.08-48.09,50.92-50.92-2.84-2.83-28.29,28.29-22.62,22.63-2.83,2.82,28.3,28.29,22.62,22.63-25.45,25.45,2.81,2.83,22.64,22.64-22.63,22.61-2.84,2.84-22.61,22.62-22.63-22.63-2.83-2.82-22.62-22.63-25.46-25.46,25.46-25.45-2.83-2.83-2.84,2.83-22.62,22.62-28.3,28.29-22.62,22.63-2.83,2.83,25.46,25.46-22.63,22.61-2.82,2.83-22.62,22.63-22.63-22.62-2.84-2.82-2.83,2.81,25.47,25.46-99.01,99-2.83,2.83-22.61,22.62-25.47,25.47-48.09-48.09,22.64-22.62,28.29-28.3-2.84-2.82-50.91,50.91-124.45-124.45,48.08-48.08,76.37,76.37,2.82-2.84,25.47-25.46,22.62-22.61,22.64,22.62,25.45,25.45,2.82,2.84,2.83-2.83-2.82-2.84-22.63-22.62,25.45-25.45-2.83-2.83-25.44,25.45-22.64-22.62-25.46-25.46,22.63-22.64,2.83-2.81,22.62-22.64,25.46-25.46,50.92,50.91,2.82-2.81-2.82-2.83-22.62-22.64-25.47-25.46-2.83-2.81-2.82,2.81-22.62,22.64-25.47,25.46-48.08-48.09,50.92-50.91-2.84-2.84-28.29,28.29-22.62,22.64-2.83,2.81,28.29,28.29,22.62,22.64-25.44,25.45,2.81,2.82,22.63,22.64-22.62,22.61-2.84,2.84-22.61,22.62-22.64-22.63-2.82-2.81-22.62-22.64-25.46-25.45,25.46-25.46-2.83-2.83-2.84,2.84-22.63,22.61-28.29,28.29-22.62,22.64-2.74,2.73,25.29,25.29-22.63,22.61-2.83,2.83-22.62,22.64-22.63-22.63-2.83-2.82-2.83,2.81,25.46,25.46L.04-308.9v5.57l2.4-2.38,48.09-48.09,22.61,22.63,25.46,25.46-22.62,22.62-2.84,2.83,28.29,28.29,2.84-2.83-25.46-25.46,25.45-25.45-28.29-28.29-22.62-22.63,50.92-50.91,22.62-22.63,2.83-2.82,22.62-22.62,48.08,48.07-22.61,22.63-28.3,28.29,2.83,2.83,50.91-50.91,99,98.99-48.08,48.09-22.62-22.64-2.83-2.83-22.64-22.62-2.83-2.83-2.82,2.83-22.64,22.62-2.81,2.83,2.83,2.83,2.81-2.83,22.63-22.62,22.64,22.62,2.83,2.83,22.62,22.63-25.45,25.45,2.83,2.83,22.61,22.63-48.08,48.08-50.9-50.91-25.46,25.46-2.84,2.83-22.61,22.62-22.64-22.63-2.83-2.82-22.62-22.63-25.45-25.46-2.84-2.82-2.82,2.82,28.29,28.29,22.62,22.63,2.83,2.82,25.46,25.46,2.83-2.83,22.61-22.63,2.84-2.82,22.62-22.63,48.08,48.08-22.63,22.63-2.82,2.83-22.63,22.62-2.83,2.83,2.84,2.83,2.83-2.83,22.61-22.62,2.84-2.83,76.36-76.36-25.46-25.47,22.64-22.62,25.46-25.46,25.45,25.45,2.83-2.82-2.83-2.83-22.62-22.63,22.61-22.63.18.18,28.2-28.2,22.62-22.63,2.83-2.82,48.09-48.09,22.61,22.63,25.47,25.46-22.63,22.61-2.84,2.84,28.3,28.29,2.83-2.83-25.45-25.46,25.44-25.45-28.29-28.29-22.61-22.63,50.91-50.91,22.62-22.63,2.83-2.82,22.63-22.63,48.07,48.08-22.61,22.63-28.29,28.29,2.83,2.83,50.91-50.91,98.99,98.99-48.08,48.08-22.62-22.63-2.83-2.83-22.63-22.62-2.83-2.83-2.83,2.83-22.63,22.62-2.82,2.83,2.83,2.83,2.82-2.83,22.63-22.62,22.63,22.62,2.83,2.83,22.62,22.63-25.45,25.45,2.83,2.83,22.62,22.63-48.08,48.07-50.9-50.9-25.47,25.46-2.83,2.82-22.62,22.63-22.63-22.63-2.83-2.82-22.62-22.63-25.46-25.46-2.83-2.82-2.83,2.81,28.29,28.3,22.62,22.63,2.83,2.81,25.46,25.47,2.83-2.83,22.61-22.63,2.84-2.82,22.63-22.63,48.07,48.08-22.62,22.63-2.82,2.83-22.63,22.62-2.83,2.82,2.84,2.84,2.82-2.83,22.62-22.63,2.83-2.82,76.37-76.37-25.46-25.46,22.63-22.62,25.46-25.46,25.45,25.45,2.83-2.82-2.82-2.83-22.63-22.63,22.62-22.63,2.83-2.82,25.46-25.46,22.62-22.63,2.83-2.82,48.09-48.09,22.62,22.63,25.46,25.46-22.63,22.61-2.83,2.84,28.29,28.29,2.83-2.84-25.45-25.45,25.45-25.45-28.29-28.29-22.62-22.63,50.91-50.91,22.62-22.64,2.83-2.81,22.63-22.63,48.08,48.08-22.62,22.63-28.29,28.29,2.83,2.83,50.91-50.92,99,99-48.09,48.08-22.62-22.63-2.83-2.83-22.63-22.62-2.83-2.83-2.83,2.83-22.63,22.62-2.82,2.83,2.83,2.83,2.82-2.83,22.63-22.62,22.64,22.62,2.82,2.83,22.62,22.63-25.44,25.45,2.82,2.83,22.62,22.63-48.08,48.07-50.9-50.9-25.47,25.46-2.83,2.82-22.61,22.63-22.64-22.64-2.83-2.81-22.62-22.63-25.45-25.46-2.84-2.82-2.83,2.81,28.29,28.29,22.62,22.64,2.83,2.81,25.47,25.47,2.82-2.83,22.62-22.63,2.83-2.82,22.63-22.63,48.08,48.08-22.63,22.63-2.82,2.83-22.63,22.61-2.83,2.83,2.84,2.84,2.83-2.83,22.61-22.63,2.83-2.82,76.37-76.37-25.46-25.46,22.63-22.62,25.47-25.46,25.44,25.45,2.83-2.82-2.82-2.83-22.63-22.63,22.62-22.63-.2-.2,2.83-2.82,25.47-25.46,22.61-22.63,2.83-2.82,48.1-48.09,22.61,22.63,25.46,25.46-22.63,22.61-2.83,2.84,28.29,28.29,2.84-2.84-25.46-25.45,25.45-25.45-28.29-28.29-22.62-22.63,50.92-50.91,22.62-22.64,2.82-2.81,22.63-22.63,48.08,48.08-22.62,22.62-28.29,28.3,2.83,2.82,50.91-50.91,99,99-48.09,48.08-22.62-22.63-2.82-2.83-22.64-22.62-2.83-2.83-2.83,2.83-22.63,22.62-2.81,2.83,2.82,2.83,2.82-2.83,22.63-22.62,22.64,22.62,2.83,2.83,22.62,22.63-25.45,25.45,2.83,2.83,22.61,22.62-48.08,48.08-50.9-50.9-25.46,25.46-2.84,2.82-22.61,22.63-22.64-22.64-2.83-2.81-22.62-22.64-25.45-25.45-2.84-2.82-2.83,2.81,28.3,28.29,22.62,22.64,2.82,2.81,25.47,25.46,2.83-2.82,22.61-22.63,2.83-2.82,22.63-22.63,48.08,48.08-22.63,22.62-2.82,2.84-22.63,22.61-2.83,2.83,2.84,2.84,2.83-2.83,22.61-22.63,2.84-2.82,76.36-76.37-25.46-25.46,22.63-22.62,25.47-25.46,25.45,25.44,2.82-2.81-2.82-2.84-22.62-22.62,22.61-22.63.18.18,28.2-28.2,22.61-22.63,2.84-2.82,48.09-48.09,22.61,22.62,25.47,25.47-22.63,22.61-2.84,2.84,28.3,28.29,2.83-2.84-25.46-25.45,25.45-25.45-28.29-28.29-22.61-22.63,50.91-50.91,22.62-22.64,2.83-2.81,22.63-22.63,48.07,48.08-22.61,22.62-28.29,28.3,2.83,2.82,50.91-50.91.31.31v-5.65l-73.82-73.82,48.08-48.09,25.74,25.74v-5.68l-22.9-22.89,22.9-22.9v-5.12ZM1628.75-511.86l-2.83,2.83-22.63,22.62-2.82,2.83,2.83,2.82,2.81-2.82,22.64-22.62.31.31v-5.66l-.31-.31ZM1628.75-359.14l-50.91-50.91-25.46,25.47-2.83,2.82-22.62,22.63-22.63-22.64-2.83-2.81-22.62-22.64-25.46-25.45-2.83-2.82-2.83,2.81,28.29,28.29,22.62,22.64,2.83,2.81,25.46,25.46,2.83-2.83,22.61-22.62,2.84-2.82,22.63-22.63,48.07,48.07-22.62,22.63-2.83,2.84-22.62,22.61-2.83,2.83,2.83,2.83,2.83-2.82,22.62-22.63,2.83-2.82,22.94-22.94v-5.67l-.31.31ZM1626.23-101.6l2.83,2.83v-5.66l-2.83,2.83ZM1603.61,73.76l-2.84,2.82-22.61,22.63-22.64-22.64-2.82-2.81-22.62-22.63-25.46-25.46-2.84-2.82-2.82,2.81,28.29,28.29,22.62,22.64,2.83,2.81,25.46,25.47,2.83-2.83,22.61-22.63,2.84-2.82,22.62-22.63v-5.65l-25.45,25.45ZM1626.23,152.94l2.83,2.83v-5.66l-2.83,2.83ZM1629.06,206.7v-.08l-.04.04.04.04ZM1626.37,356.73l2.69,2.69v-5.37l-2.69,2.68ZM1606.57,534.92l-2.83-2.82-22.62-22.63-25.45-25.46-2.84-2.82-2.83,2.81,28.3,28.3,22.62,22.63,2.82,2.81,25.32,25.32v-5.66l-22.49-22.48ZM1530.21,662.22l22.62-22.64,25.47-25.46,50.76,50.76v-5.64l-22.47-22.49-25.47-25.46-2.82-2.81-2.83,2.81-22.62,22.64-25.47,25.46-48.08-48.08,50.92-50.92-2.84-2.84-28.29,28.29-22.62,22.64-2.83,2.81,28.29,28.29,22.62,22.64-25.44,25.45,2.81,2.82,22.63,22.64-22.62,22.61-2.84,2.84-22.61,22.62-22.64-22.63-2.82-2.81-22.62-22.64-25.46-25.45,25.46-25.46-2.83-2.83-2.84,2.84-22.63,22.61-28.29,28.29-22.62,22.64-2.74,2.73,25.29,25.29-22.63,22.61-2.83,2.83-22.62,22.64-22.63-22.63-2.83-2.82-2.83,2.81,25.46,25.46-.02.02h5.6l.05-.05,22.62-22.63,2.83-2.82,22.62-22.62,48.08,48.07-.05.05h5.57l-76.11-76.12,48.08-48.08,76.37,76.37,2.82-2.84,25.47-25.46,22.62-22.61,22.64,22.62,25.45,25.45,2.83,2.84,2.82-2.83-2.82-2.84-22.63-22.62,25.45-25.45-2.82-2.83-25.45,25.45-22.64-22.62-25.46-25.46,22.63-22.64,2.83-2.81ZM1374.53,811.82l-2.88,2.88h5.67l.05-.05-2.84-2.83ZM1629.06,710.15l-22.47-22.48-2.83-2.83-22.64-22.62-2.82-2.83-2.83,2.83-22.64,22.62-2.81,2.83,2.83,2.82,2.81-2.82,22.64-22.62,22.63,22.62,2.83,2.82,22.62,22.64-25.45,25.45,2.83,2.83,22.61,22.62-48.07,48.08-50.91-50.91-25.46,25.47-2.84,2.82-22.61,22.63-22.64-22.64-2.82-2.81-22.62-22.64-25.46-25.45-2.84-2.82-2.82,2.81,28.29,28.29,22.62,22.64,2.83,2.81,22.39,22.39h6.14l22.37-22.38,2.84-2.82,22.62-22.63,47.83,47.83h6.17l47.68-47.68v-5.96l-22.49-22.48,22.49-22.47v-5.96ZM1527.38,812.12l-2.58,2.58h5.18l-2.6-2.58ZM1626.64,814.7h2.42v-2.43l-2.42,2.43ZM1629.02,206.66l.04.04v-.08l-.04.04ZM0,206.64l.04.04v-.08l-.04.04Z" fill="url(#b)"/></svg>