<?xml version="1.0" encoding="UTF-8"?><svg id="a" xmlns="http://www.w3.org/2000/svg" width="512" height="296" viewBox="0 0 512 296" opacity=".33"><path d="M331.2,266.3h38.3v29.7h-98.5V0h98.5v29.7h-38.3c-10.1,0-18.3,8.2-18.3,18.3v199.9c0,10.1,8.2,18.3,18.3,18.3Z"/><path d="M241,0v296h-98.5v-29.7h38.3c10.1,0,18.3-8.2,18.3-18.3V48.1c0-10.1-8.2-18.3-18.3-18.3h-38.3V0h98.5Z"/><rect y="162.8" width="137.8" height="29.7"/><rect x="374.2" y="162.8" width="137.8" height="29.7"/><rect y="103.2" width="137.8" height="30.1"/><rect x="374.2" y="103.2" width="137.8" height="30.1"/></svg>
